<?xml version="1.0" encoding="utf-8"?>
<!-- Generator: Adobe Illustrator 18.0.0, SVG Export Plug-In . SVG Version: 6.00 Build 0)  -->
<!DOCTYPE svg PUBLIC "-//W3C//DTD SVG 1.1//EN" "http://www.w3.org/Graphics/SVG/1.1/DTD/svg11.dtd">
<svg version="1.1" id="communication_and_media" xmlns="http://www.w3.org/2000/svg" xmlns:xlink="http://www.w3.org/1999/xlink"
	 x="0px" y="0px" viewBox="0 0 100 100" style="enable-background:new 0 0 100 100;" xml:space="preserve">
<style type="text/css">
	.st0{fill:#71A58A;}
	.st1{fill:#FF6F69;}
	.st2{fill:#99734A;}
	.st3{fill:#825E3B;}
	.st4{fill:#FFCC5C;}
	.st5{fill:#639376;}
	.st6{fill:#FFEEAD;}
	.st7{fill:#E05858;}
	.st8{fill:#C1821E;}
	.st9{fill:#B28559;}
	.st10{fill:#BF4343;}
	.st11{fill:#96CEB4;}
	.st12{fill:none;}
	.st13{fill:#C9B77D;}
	.st14{fill:#D6A041;}
	.st15{fill:#AA9865;}
	.st16{fill:#FFFFFF;}
	.st17{fill:#FF6F69;stroke:#FFCC5C;stroke-linecap:round;stroke-linejoin:round;stroke-miterlimit:10;}
	.st18{fill:none;stroke:#FF6F69;stroke-width:6;stroke-miterlimit:10;}
</style>
<g id="mobile__solutions_1_">
	<g>
		<g>
			<path class="st0" d="M77.038,15.255H22.962c-7.75,0-14.055,6.305-14.055,14.055v11.617c0,0.884,0.716,1.599,1.599,1.599
				c0.883,0,1.599-0.716,1.599-1.599V29.311c0-5.986,4.87-10.856,10.856-10.856h54.077c5.986,0,10.856,4.87,10.856,10.856v56.634
				c0,5.986-4.87,10.856-10.856,10.856H22.962c-5.986,0-10.856-4.87-10.856-10.856v-16.5c0-0.884-0.716-1.599-1.599-1.599
				c-0.884,0-1.599,0.716-1.599,1.599v16.5c0,7.75,6.305,14.055,14.055,14.055h54.077c7.75,0,14.055-6.305,14.055-14.055V29.311
				C91.093,21.56,84.788,15.255,77.038,15.255z"/>
		</g>
	</g>
	<g>
		<g>
			<g>
				<path class="st6" d="M67.988,0H35.056c-5.098,0-9.231,4.133-9.231,9.231v71.784c0,5.098,4.133,9.231,9.231,9.231h32.932
					c5.098,0,9.231-4.133,9.231-9.231V9.231C77.218,4.133,73.086,0,67.988,0z"/>
			</g>
		</g>
		<g>
			<g>
				<rect x="28.424" y="8.808" class="st7" width="46.195" height="69.014"/>
			</g>
		</g>
		<g>
			<g>
				<circle class="st1" cx="51.522" cy="41.659" r="20.141"/>
			</g>
		</g>
		<g>
			<g>
				<g>
					<circle class="st6" cx="51.522" cy="41.659" r="16.953"/>
				</g>
			</g>
			<g>
				<g>
					<circle class="st4" cx="51.522" cy="41.722" r="13.282"/>
				</g>
			</g>
			<g>
				<g>
					<g>
						<path class="st16" d="M47.917,44.448c-0.466,0-0.844,0.378-0.844,0.844v12.177c0,0.466,0.378,0.844,0.844,0.844
							s0.844-0.378,0.844-0.844V45.292C48.761,44.826,48.383,44.448,47.917,44.448z"/>
					</g>
				</g>
				<g>
					<g>
						<path class="st16" d="M55.29,44.448c-0.466,0-0.844,0.378-0.844,0.844v12.177c0,0.466,0.378,0.844,0.844,0.844
							s0.844-0.378,0.844-0.844V45.292C56.134,44.826,55.756,44.448,55.29,44.448z"/>
					</g>
				</g>
			</g>
			<g>
				<g>
					<path class="st14" d="M57.064,57.47H45.979c-1.262,0-2.295,1.033-2.295,2.295v1.242c0,1.262,1.033,2.295,2.295,2.295h11.085
						c1.262,0,2.295-1.033,2.295-2.295v-1.242C59.359,58.502,58.326,57.47,57.064,57.47z"/>
				</g>
			</g>
			<g>
				<g>
					<path class="st14" d="M57.064,63.301H45.979c-1.262,0-2.295,1.033-2.295,2.295v1.242c0,1.262,1.033,2.295,2.295,2.295h11.085
						c1.262,0,2.295-1.033,2.295-2.295v-1.242C59.359,64.333,58.326,63.301,57.064,63.301z"/>
				</g>
			</g>
			<g>
				<g>
					<path class="st3" d="M46.355,69.132v0.054c0,1.392,1.128,2.52,2.52,2.52h5.292c1.392,0,2.52-1.128,2.52-2.52v-0.054H46.355z"/>
				</g>
			</g>
			<g>
				<g>
					<path class="st16" d="M56.021,44.87c-0.234-0.404-0.75-0.542-1.153-0.309L51.1,46.738c-0.404,0.233-0.542,0.749-0.309,1.153
						c0.157,0.271,0.44,0.422,0.731,0.422c0.143,0,0.288-0.036,0.421-0.113l3.768-2.177C56.116,45.79,56.254,45.273,56.021,44.87z"
						/>
				</g>
			</g>
			<g>
				<g>
					<path class="st16" d="M51.958,46.747l-3.604-2.177c-0.398-0.242-0.917-0.114-1.159,0.286c-0.241,0.399-0.113,0.917,0.286,1.159
						l3.604,2.177c0.136,0.082,0.287,0.121,0.436,0.121c0.286,0,0.564-0.145,0.723-0.408C52.485,47.506,52.357,46.988,51.958,46.747
						z"/>
				</g>
			</g>
		</g>
		<g>
			<g>
				<path class="st3" d="M60.259,3.555H42.784c-0.45,0-0.819,0.369-0.819,0.819c0,0.451,0.369,0.819,0.819,0.819h17.475
					c0.451,0,0.819-0.369,0.819-0.819C61.078,3.923,60.709,3.555,60.259,3.555z"/>
			</g>
		</g>
		<g>
			<g>
				<circle class="st3" cx="51.522" cy="84.377" r="3.726"/>
			</g>
		</g>
	</g>
	<g>
		<g>
			<path class="st0" d="M43.772,48.808H22.962c-7.75,0-14.055,6.305-14.055,14.055v11.834c0,0.884,0.716,1.599,1.599,1.599
				c0.883,0,1.599-0.716,1.599-1.599V62.863c0-5.986,4.87-10.856,10.856-10.856h20.811c0.884,0,1.599-0.716,1.599-1.599
				C45.372,49.524,44.656,48.808,43.772,48.808z"/>
		</g>
	</g>
	<g>
		<g>
			<g>
				<path class="st11" d="M44.903,49.277l-6.438-6.438c-0.625-0.625-1.637-0.625-2.262,0c-0.625,0.624-0.625,1.637,0,2.262
					l6.438,6.438c0.312,0.312,0.722,0.469,1.131,0.469s0.818-0.156,1.131-0.469C45.528,50.914,45.528,49.902,44.903,49.277z"/>
			</g>
		</g>
		<g>
			<g>
				<path class="st11" d="M44.903,49.277c-0.625-0.625-1.637-0.625-2.262,0l-6.438,6.438c-0.625,0.624-0.625,1.637,0,2.262
					c0.312,0.312,0.722,0.469,1.131,0.469s0.818-0.156,1.131-0.469l6.438-6.438C45.528,50.914,45.528,49.901,44.903,49.277z"/>
			</g>
		</g>
	</g>
	<g>
		<g>
			<g>
				<path class="st11" d="M97.063,47.345c-0.625-0.625-1.637-0.625-2.262,0l-6.438,6.438c-0.625,0.624-0.625,1.637,0,2.262
					c0.312,0.312,0.722,0.469,1.131,0.469c0.409,0,0.818-0.156,1.131-0.469l6.438-6.438C97.688,48.982,97.688,47.969,97.063,47.345z
					"/>
			</g>
		</g>
		<g>
			<g>
				<path class="st11" d="M90.624,53.783l-6.438-6.438c-0.625-0.625-1.637-0.625-2.262,0c-0.625,0.624-0.625,1.637,0,2.262
					l6.438,6.438c0.312,0.312,0.722,0.469,1.131,0.469c0.409,0,0.818-0.156,1.131-0.469C91.249,55.42,91.249,54.408,90.624,53.783z"
					/>
			</g>
		</g>
	</g>
	<g>
		<g>
			<g>
				<path class="st11" d="M18.075,33.398c-0.625-0.625-1.637-0.625-2.262,0l-6.438,6.438c-0.625,0.624-0.625,1.637,0,2.262
					c0.312,0.312,0.722,0.469,1.131,0.469c0.409,0,0.818-0.156,1.131-0.469l6.438-6.438C18.7,35.036,18.7,34.023,18.075,33.398z"/>
			</g>
		</g>
		<g>
			<g>
				<path class="st11" d="M11.637,39.836l-6.438-6.438c-0.625-0.625-1.637-0.625-2.262,0c-0.625,0.625-0.625,1.637,0,2.262
					l6.438,6.438c0.312,0.312,0.722,0.469,1.131,0.469c0.409,0,0.818-0.156,1.131-0.469C12.262,41.473,12.262,40.46,11.637,39.836z"
					/>
			</g>
		</g>
	</g>
</g>
</svg>
