<?xml version="1.0" encoding="utf-8"?>
<!-- Generator: Adobe Illustrator 18.0.0, SVG Export Plug-In . SVG Version: 6.00 Build 0)  -->
<!DOCTYPE svg PUBLIC "-//W3C//DTD SVG 1.1//EN" "http://www.w3.org/Graphics/SVG/1.1/DTD/svg11.dtd">
<svg version="1.1" id="communication_and_media" xmlns="http://www.w3.org/2000/svg" xmlns:xlink="http://www.w3.org/1999/xlink"
	 x="0px" y="0px" viewBox="0 0 100 100" style="enable-background:new 0 0 100 100;" xml:space="preserve">
<style type="text/css">
	.st0{fill:#71A58A;}
	.st1{fill:#FF6F69;}
	.st2{fill:#99734A;}
	.st3{fill:#825E3B;}
	.st4{fill:#FFCC5C;}
	.st5{fill:#639376;}
	.st6{fill:#FFEEAD;}
	.st7{fill:#E05858;}
	.st8{fill:#C1821E;}
	.st9{fill:#B28559;}
	.st10{fill:#BF4343;}
	.st11{fill:#96CEB4;}
	.st12{fill:none;}
	.st13{fill:#C9B77D;}
	.st14{fill:#D6A041;}
	.st15{fill:#AA9865;}
	.st16{fill:#FFFFFF;}
	.st17{fill:#FF6F69;stroke:#FFCC5C;stroke-linecap:round;stroke-linejoin:round;stroke-miterlimit:10;}
	.st18{fill:none;stroke:#FF6F69;stroke-width:6;stroke-miterlimit:10;}
</style>
<g id="document_1_">
	<g>
		<g>
			<path class="st13" d="M71.642,9.032H17.043c-4.372,0-7.916,3.544-7.916,7.916v75.136c0,4.372,3.544,7.916,7.916,7.916h54.599
				c4.372,0,7.916-3.544,7.916-7.916V16.948C79.559,12.576,76.014,9.032,71.642,9.032z"/>
		</g>
	</g>
	<g>
		<g>
			<path class="st15" d="M71.642,9.032H17.666c-0.129,0.567-0.203,1.154-0.203,1.759v75.136c0,4.372,3.544,7.916,7.916,7.916h53.976
				c0.129-0.567,0.203-1.154,0.203-1.759V16.948C79.559,12.576,76.014,9.032,71.642,9.032z"/>
		</g>
	</g>
	<g>
		<g>
			<path class="st6" d="M73.39,0H28.358c-4.372,0-7.916,3.544-7.916,7.916v75.136c0,4.372,3.544,7.916,7.916,7.916h54.599
				c4.372,0,7.916-3.544,7.916-7.916V17.484L73.39,0z"/>
		</g>
	</g>
	<g>
		<g>
			<g>
				<g>
					<path class="st15" d="M78.688,77.556H56.451c-0.437,0-0.794,0.357-0.794,0.794c0,0.437,0.357,0.794,0.794,0.794h22.237
						c0.437,0,0.794-0.357,0.794-0.794C79.482,77.913,79.125,77.556,78.688,77.556z"/>
				</g>
			</g>
			<g>
				<g>
					<path class="st15" d="M78.688,71.399H56.451c-0.437,0-0.794,0.357-0.794,0.794c0,0.437,0.357,0.794,0.794,0.794h22.237
						c0.437,0,0.794-0.357,0.794-0.794C79.482,71.756,79.125,71.399,78.688,71.399z"/>
				</g>
			</g>
			<g>
				<g>
					<path class="st15" d="M78.688,65.242H56.451c-0.437,0-0.794,0.357-0.794,0.794v0c0,0.437,0.357,0.794,0.794,0.794h22.237
						c0.437,0,0.794-0.357,0.794-0.794v0C79.482,65.599,79.125,65.242,78.688,65.242z"/>
				</g>
			</g>
			<g>
				<g>
					<path class="st15" d="M78.688,59.085H32.626c-0.437,0-0.794,0.357-0.794,0.794c0,0.437,0.357,0.794,0.794,0.794h46.062
						c0.437,0,0.794-0.357,0.794-0.794C79.482,59.442,79.125,59.085,78.688,59.085z"/>
				</g>
			</g>
			<g>
				<g>
					<path class="st15" d="M78.688,52.928H32.626c-0.437,0-0.794,0.357-0.794,0.794c0,0.437,0.357,0.794,0.794,0.794h46.062
						c0.437,0,0.794-0.357,0.794-0.794C79.482,53.286,79.125,52.928,78.688,52.928z"/>
				</g>
			</g>
			<g>
				<g>
					<path class="st15" d="M78.688,46.771H32.626c-0.437,0-0.794,0.357-0.794,0.794c0,0.437,0.357,0.794,0.794,0.794h46.062
						c0.437,0,0.794-0.357,0.794-0.794C79.482,47.129,79.125,46.771,78.688,46.771z"/>
				</g>
			</g>
			<g>
				<g>
					<path class="st15" d="M78.688,40.615H32.626c-0.437,0-0.794,0.357-0.794,0.794c0,0.437,0.357,0.794,0.794,0.794h46.062
						c0.437,0,0.794-0.357,0.794-0.794C79.482,40.972,79.125,40.615,78.688,40.615z"/>
				</g>
			</g>
			<g>
				<g>
					<path class="st15" d="M78.688,34.458H32.626c-0.437,0-0.794,0.357-0.794,0.794c0,0.437,0.357,0.794,0.794,0.794h46.062
						c0.437,0,0.794-0.357,0.794-0.794C79.482,34.815,79.125,34.458,78.688,34.458z"/>
				</g>
			</g>
			<g>
				<g>
					<path class="st15" d="M78.688,28.301H32.626c-0.437,0-0.794,0.357-0.794,0.794c0,0.437,0.357,0.794,0.794,0.794h46.062
						c0.437,0,0.794-0.357,0.794-0.794C79.482,28.658,79.125,28.301,78.688,28.301z"/>
				</g>
			</g>
			<g>
				<g>
					<path class="st15" d="M78.688,22.144H32.626c-0.437,0-0.794,0.357-0.794,0.794s0.357,0.794,0.794,0.794h46.062
						c0.437,0,0.794-0.357,0.794-0.794S79.125,22.144,78.688,22.144z"/>
				</g>
			</g>
			<g>
				<g>
					<path class="st15" d="M78.688,15.987H32.626c-0.437,0-0.794,0.357-0.794,0.794c0,0.437,0.357,0.794,0.794,0.794h46.062
						c0.437,0,0.794-0.357,0.794-0.794C79.482,16.344,79.125,15.987,78.688,15.987z"/>
				</g>
			</g>
			<g>
				<g>
					<path class="st15" d="M78.688,9.83H32.626c-0.437,0-0.794,0.357-0.794,0.794c0,0.437,0.357,0.794,0.794,0.794h46.062
						c0.437,0,0.794-0.357,0.794-0.794C79.482,10.187,79.125,9.83,78.688,9.83z"/>
				</g>
			</g>
		</g>
		<g>
			<g>
				<path class="st7" d="M47.795,65.242H34.822c-1.651,0-2.989,1.338-2.989,2.989v7.923c0,1.651,1.338,2.989,2.989,2.989h12.973
					c1.651,0,2.989-1.338,2.989-2.989v-7.923C50.784,66.581,49.446,65.242,47.795,65.242z"/>
			</g>
		</g>
	</g>
	<g>
		<g>
			<path class="st11" d="M73.39,0v9.567c0,4.372,3.544,7.916,7.916,7.916h9.568L73.39,0z"/>
		</g>
	</g>
</g>
</svg>
