<svg xmlns="http://www.w3.org/2000/svg" xmlns:xlink="http://www.w3.org/1999/xlink" viewBox="0 0 310.43 310.43"><defs><style>.cls-1{fill:url(#New_Gradient_Swatch_6);}.cls-10,.cls-2,.cls-6,.cls-7{fill:#f2eed1;}.cls-2{opacity:0.16;}.cls-3{fill:#5b4559;}.cls-4{fill:#3e2f3c;}.cls-4,.cls-6,.cls-8,.cls-9{fill-rule:evenodd;}.cls-5{fill:url(#New_Gradient_Swatch_4);}.cls-8{fill:#e1deb4;}.cls-9{fill:#fff;}.cls-10{opacity:0.39;}</style><linearGradient id="New_Gradient_Swatch_6" x1="155.22" y1="308.68" x2="155.22" y2="-1.75" gradientUnits="userSpaceOnUse"><stop offset="0" stop-color="#f5c268"/><stop offset="1" stop-color="#d89144"/></linearGradient><linearGradient id="New_Gradient_Swatch_4" x1="118.97" y1="137.38" x2="197.36" y2="137.38" gradientUnits="userSpaceOnUse"><stop offset="0" stop-color="#ee6d58"/><stop offset="1" stop-color="#bf423c"/></linearGradient></defs><g id="squares"><rect class="cls-1" width="310.43" height="310.43"/></g><g id="elements"><circle class="cls-2" cx="1155.09" cy="153.74" r="112.5" transform="translate(-767.32 845.05) rotate(-45)"/><circle class="cls-2" cx="1155.09" cy="153.74" r="89.83" transform="translate(-767.32 845.05) rotate(-45)"/><rect class="cls-3" x="111.13" y="45.12" width="94.07" height="184.52" rx="10.45"/><path class="cls-4" d="M1191.68,61.87h-36.59V246.39h36.59a10.44,10.44,0,0,0,10.45-10.45V72.33A10.45,10.45,0,0,0,1191.68,61.87Z" transform="translate(-996.93 -16.76)"/><rect class="cls-5" x="118.97" y="72.09" width="78.4" height="130.56" rx="6.97"/><path class="cls-6" d="M1143.11,228.33a4.6,4.6,0,1,0,4.6,4.59A4.6,4.6,0,0,0,1143.11,228.33Z" transform="translate(-996.93 -16.76)"/><path class="cls-6" d="M1155.09,228.33a4.6,4.6,0,1,0,4.6,4.59A4.6,4.6,0,0,0,1155.09,228.33Z" transform="translate(-996.93 -16.76)"/><path class="cls-6" d="M1167.06,228.33a4.6,4.6,0,1,0,4.6,4.59A4.6,4.6,0,0,0,1167.06,228.33Z" transform="translate(-996.93 -16.76)"/><rect class="cls-7" x="150.78" y="84.56" width="74.73" height="50.08"/><polygon class="cls-8" points="150.78 134.64 188.15 109.6 225.51 134.64 150.78 134.64"/><polygon class="cls-9" points="150.78 84.56 188.15 109.6 225.51 84.56 150.78 84.56"/><polygon class="cls-8" points="225.51 84.56 188.15 59.52 150.78 84.56 225.51 84.56"/><rect class="cls-10" x="126.79" y="147.17" width="49.83" height="8.44"/><rect class="cls-10" x="126.79" y="163.41" width="43.94" height="8.44"/><rect class="cls-10" x="126.79" y="179.66" width="58.13" height="8.44"/></g></svg>