<?xml version="1.0" encoding="utf-8"?>
<!-- Generator: Adobe Illustrator 18.0.0, SVG Export Plug-In . SVG Version: 6.00 Build 0)  -->
<!DOCTYPE svg PUBLIC "-//W3C//DTD SVG 1.1//EN" "http://www.w3.org/Graphics/SVG/1.1/DTD/svg11.dtd">
<svg version="1.1" id="communication_and_media" xmlns="http://www.w3.org/2000/svg" xmlns:xlink="http://www.w3.org/1999/xlink"
	 x="0px" y="0px" viewBox="0 0 100 100" style="enable-background:new 0 0 100 100;" xml:space="preserve">
<style type="text/css">
	.st0{fill:#71A58A;}
	.st1{fill:#FF6F69;}
	.st2{fill:#99734A;}
	.st3{fill:#825E3B;}
	.st4{fill:#FFCC5C;}
	.st5{fill:#639376;}
	.st6{fill:#FFEEAD;}
	.st7{fill:#E05858;}
	.st8{fill:#C1821E;}
	.st9{fill:#B28559;}
	.st10{fill:#BF4343;}
	.st11{fill:#96CEB4;}
	.st12{fill:none;}
	.st13{fill:#C9B77D;}
	.st14{fill:#D6A041;}
	.st15{fill:#AA9865;}
	.st16{fill:#FFFFFF;}
	.st17{fill:#FF6F69;stroke:#FFCC5C;stroke-linecap:round;stroke-linejoin:round;stroke-miterlimit:10;}
	.st18{fill:none;stroke:#FF6F69;stroke-width:6;stroke-miterlimit:10;}
</style>
<g id="monitor_1_">
	<g>
		<g>
			<path class="st0" d="M69.231,88.546h-6.842c-2.728,0-4.94-2.211-4.94-4.939v-7.167H42.551v7.167c0,2.728-2.211,4.939-4.94,4.939
				h-6.842c-2.701,0-4.89,2.189-4.89,4.89v2.773h48.243v-2.773C74.122,90.735,71.932,88.546,69.231,88.546z"/>
		</g>
	</g>
	<g>
		<g>
			<path class="st11" d="M69.231,88.546H30.769c-2.701,0-4.89,2.189-4.89,4.89v2.773h48.243v-2.773
				C74.122,90.735,71.932,88.546,69.231,88.546z"/>
		</g>
	</g>
	<g>
		<g>
			<rect x="42.55" y="76.439" class="st5" width="14.899" height="3.923"/>
		</g>
	</g>
	<g>
		<g>
			<g>
				<path class="st2" d="M88.978,9.272H11.022c-3.055,0-5.541,2.486-5.541,5.541v50.605c0,3.055,2.486,5.541,5.541,5.541h77.956
					c3.056,0,5.541-2.486,5.541-5.541V14.813C94.519,11.758,92.034,9.272,88.978,9.272z"/>
			</g>
		</g>
		<g>
			<g>
				<path class="st3" d="M88.978,9.272H11.022c-3.055,0-5.541,2.486-5.541,5.541v1.932c0-3.055,2.486-5.541,5.541-5.541h77.956
					c3.056,0,5.541,2.486,5.541,5.541v-1.932C94.519,11.758,92.034,9.272,88.978,9.272z"/>
			</g>
		</g>
		<g>
			<g>
				<path class="st3" d="M93.046,11.08L6.874,69.053c1.016,1.158,2.49,1.905,4.148,1.905h77.956c3.056,0,5.541-2.486,5.541-5.541
					V14.813C94.519,13.371,93.952,12.067,93.046,11.08z"/>
			</g>
		</g>
		<g>
			<g>
				<path class="st11" d="M88.978,3.791H11.022C4.935,3.791,0,8.726,0,14.813v50.605c0,6.087,4.935,11.022,11.022,11.022h59.179
					c0.599,0,1.084,0.485,1.084,1.084v0.854c0,1.063,0.862,1.925,1.926,1.925h12.759c1.063,0,1.926-0.862,1.926-1.925v-0.854
					c0-0.599,0.485-1.084,1.084-1.084h0c6.087,0,11.022-4.935,11.022-11.022V14.813C100,8.726,95.065,3.791,88.978,3.791z
					 M94.519,65.418c0,3.055-2.486,5.541-5.541,5.541H11.022c-3.055,0-5.541-2.486-5.541-5.541V14.813
					c0-3.055,2.486-5.541,5.541-5.541h77.956c3.056,0,5.541,2.486,5.541,5.541V65.418z"/>
			</g>
		</g>
		<g>
			<g>
				<circle class="st7" cx="84.307" cy="76.748" r="1.553"/>
			</g>
		</g>
		<g>
			<g>
				<path class="st14" d="M79.785,75.972H74.03c-0.427,0-0.776,0.349-0.776,0.776s0.349,0.776,0.776,0.776h5.755
					c0.427,0,0.776-0.349,0.776-0.776S80.212,75.972,79.785,75.972z"/>
			</g>
		</g>
	</g>
</g>
</svg>
