<svg xmlns="http://www.w3.org/2000/svg" xmlns:xlink="http://www.w3.org/1999/xlink" viewBox="0 0 310.43 310.43"><defs><style>.cls-1{isolation:isolate;}.cls-2{fill:url(#New_Gradient_Swatch_4);}.cls-3{fill:url(#New_Gradient_Swatch_3);}.cls-4{fill:#f5c268;}.cls-5{fill:url(#New_Gradient_Swatch_6);}.cls-6{fill:#e1deb4;}.cls-7{fill:#5b4559;}.cls-8{fill:url(#New_Gradient_Swatch_3-2);}.cls-9{fill:#d89144;}.cls-10{fill:#f2eed1;}.cls-11{fill:#1d8a9c;}.cls-12{fill:url(#New_Gradient_Swatch_3-3);}.cls-13{fill:#2cabae;}.cls-14{fill:#707067;opacity:0.3;mix-blend-mode:multiply;}</style><linearGradient id="New_Gradient_Swatch_4" x1="155.22" y1="273.99" x2="155.22" y2="-14.11" gradientUnits="userSpaceOnUse"><stop offset="0" stop-color="#ee6d58"/><stop offset="1" stop-color="#bf423c"/></linearGradient><linearGradient id="New_Gradient_Swatch_3" y1="276.16" x2="310.43" y2="276.16" gradientUnits="userSpaceOnUse"><stop offset="0" stop-color="#5b4559"/><stop offset="1" stop-color="#3e2f3c"/></linearGradient><linearGradient id="New_Gradient_Swatch_6" x1="121.71" y1="138.06" x2="179.81" y2="199.73" gradientTransform="translate(227.83 -34.75) rotate(65.94)" gradientUnits="userSpaceOnUse"><stop offset="0" stop-color="#f5c268"/><stop offset="1" stop-color="#d89144"/></linearGradient><linearGradient id="New_Gradient_Swatch_3-2" x1="71.91" y1="176.18" x2="125.84" y2="176.18" xlink:href="#New_Gradient_Swatch_3"/><linearGradient id="New_Gradient_Swatch_3-3" x1="157.8" y1="97.01" x2="238.52" y2="97.01" xlink:href="#New_Gradient_Swatch_3"/></defs><g class="cls-1"><g id="squares"><rect class="cls-2" width="310.43" height="310.43"/><rect class="cls-3" y="241.89" width="310.43" height="68.54"/></g><g id="elements"><path class="cls-4" d="M137.49,205.91A48.23,48.23,0,0,1,131,205l1.21-5.87a42.63,42.63,0,0,0,5.65.76Zm6.52,0-.41-6a42.72,42.72,0,0,0,5.64-.77l1.22,5.87A48.1,48.1,0,0,1,144,205.9Zm-19.26-2.62a48.1,48.1,0,0,1-6-2.59l2.76-5.33a42.58,42.58,0,0,0,5.23,2.27Zm32,0-2-5.65a40.24,40.24,0,0,0,5.22-2.28l2.77,5.33A46.58,46.58,0,0,1,156.74,203.25Zm-43.55-5.95a46.56,46.56,0,0,1-5.06-4.11l4.09-4.39a42.58,42.58,0,0,0,4.42,3.6Zm55.09-.05-3.46-4.89a42.44,42.44,0,0,0,4.42-3.61l4.09,4.39A47.43,47.43,0,0,1,168.28,197.25Zm-64.61-8.82a49.08,49.08,0,0,1-3.77-5.31L105,180a43,43,0,0,0,3.3,4.65Zm74.11-.06-4.65-3.78a42.63,42.63,0,0,0,3.29-4.66l5.12,3.12A46.86,46.86,0,0,1,177.78,188.37Zm-80.89-11a48.69,48.69,0,0,1-2.19-6.14l5.77-1.63a41.8,41.8,0,0,0,1.92,5.37Zm87.66-.08-5.5-2.39a42.39,42.39,0,0,0,1.9-5.38l5.78,1.62A47.79,47.79,0,0,1,184.55,177.26ZM93.37,164.82a48.63,48.63,0,0,1-.46-6.5h6a43.17,43.17,0,0,0,.4,5.69Zm94.68-.1-5.94-.81a42.93,42.93,0,0,0,.38-5.69v-.17h6v.17A48.39,48.39,0,0,1,188.05,164.72ZM99.29,152.61l-6-.79a47.31,47.31,0,0,1,1.31-6.39l5.78,1.6A40.58,40.58,0,0,0,99.29,152.61Zm82.79-.24a40.22,40.22,0,0,0-1.17-5.57l5.77-1.64a49.2,49.2,0,0,1,1.35,6.38Zm-79.75-10.71-5.51-2.39a48.75,48.75,0,0,1,3-5.79l5.13,3.11A41.83,41.83,0,0,0,102.33,141.66Zm76.65-.22a41,41,0,0,0-2.64-5.05l5.11-3.14a48.77,48.77,0,0,1,3,5.77Zm-70.75-9.51-4.66-3.78a48.88,48.88,0,0,1,4.43-4.78l4.11,4.38A41.48,41.48,0,0,0,108.23,131.93Zm64.8-.18a41.46,41.46,0,0,0-3.9-4.16l4.08-4.4a47.66,47.66,0,0,1,4.46,4.75Zm-56.51-7.61-3.47-4.89a47.71,47.71,0,0,1,5.55-3.41l2.78,5.32A42.45,42.45,0,0,0,116.52,124.14Zm48.17-.14a42.34,42.34,0,0,0-4.87-3l2.74-5.33a47.79,47.79,0,0,1,5.58,3.37Zm-38.09-5.13-2-5.64a49.29,49.29,0,0,1,6.28-1.78l1.23,5.87A43.29,43.29,0,0,0,126.6,118.87Zm28-.08a41.82,41.82,0,0,0-5.5-1.51l1.2-5.88a46.8,46.8,0,0,1,6.29,1.73Zm-16.85-2.25-.42-6a48.76,48.76,0,0,1,6.51,0l-.39,6A43.36,43.36,0,0,0,137.73,116.54Z" transform="translate(-15.36 -16.76)"/><circle class="cls-5" cx="140.7" cy="158.22" r="31.11" transform="translate(-76.5 205.45) rotate(-65.94)"/><rect class="cls-6" x="77.08" y="171.52" width="49.67" height="70.37"/><polygon class="cls-7" points="157.8 181.87 71.91 181.87 81.66 159.1 157.8 159.1 157.8 181.87"/><polygon class="cls-8" points="76.78 170.49 71.91 181.87 157.8 181.87 157.8 170.49 76.78 170.49"/><rect class="cls-6" x="159.87" y="92.87" width="76.58" height="149.02"/><path class="cls-7" d="M216.63,130.33h-8.28v8.28h8.28Zm-20.7,0h-8.28v8.28h8.28ZM239.4,233.81h-8.28v8.28h8.28Zm0-20.69h-8.28v8.28h8.28Zm0-20.7h-8.28v8.28h8.28Zm0-20.7h-8.28V180h8.28Zm0-20.7h-8.28v8.28h8.28Zm0-20.69h-8.28v8.28h8.28Z" transform="translate(-15.36 -16.76)"/><rect class="cls-9" x="196.7" y="55.19" width="2.93" height="34.49"/><path class="cls-4" d="M211.65,89V72.57l-22.11-.14L193.6,80l-4.15,8.87S206.81,88.93,211.65,89Z" transform="translate(-15.36 -16.76)"/><rect class="cls-10" x="126.76" y="138.41" width="74.51" height="103.49"/><rect class="cls-11" x="124.69" y="132.2" width="78.65" height="12.42"/><rect class="cls-12" x="157.8" y="90.8" width="80.72" height="12.42"/><path class="cls-13" d="M206.28,242.09H152.47v-6.21h53.81Zm0-18.62H152.47v6.2h53.81Zm0-12.42H152.47v6.21h53.81Zm0-12.42H152.47v6.21h53.81Zm0-12.42H152.47v6.21h53.81Zm0-12.42H152.47V180h53.81Z" transform="translate(-15.36 -16.76)"/><rect class="cls-7" x="112.27" y="192.22" width="6.21" height="12.42"/><rect class="cls-7" x="99.85" y="192.22" width="6.21" height="12.42"/><rect class="cls-7" x="87.43" y="192.22" width="6.21" height="12.42"/><rect class="cls-7" x="112.27" y="214.99" width="6.21" height="12.42"/><rect class="cls-7" x="99.85" y="214.99" width="6.21" height="12.42"/><rect class="cls-7" x="87.43" y="214.99" width="6.21" height="12.42"/><rect class="cls-14" x="120.61" y="159.1" width="6.15" height="82.79"/><rect class="cls-13" x="124.69" y="132.2" width="78.65" height="6.21"/><rect class="cls-7" x="157.8" y="90.8" width="80.72" height="6.21"/></g></g></svg>