<svg xmlns="http://www.w3.org/2000/svg" xmlns:xlink="http://www.w3.org/1999/xlink" viewBox="0 0 310.43 310.43"><defs><style>.cls-1{fill:url(#New_Gradient_Swatch_2);}.cls-2,.cls-3,.cls-7{fill-rule:evenodd;}.cls-2{fill:url(#New_Gradient_Swatch_6);}.cls-3{fill:#d89144;}.cls-4{fill:#fff;}.cls-5{fill:url(#New_Gradient_Swatch_3);}.cls-6{fill:#3e2f3c;}.cls-7{fill:#eea74e;}</style><linearGradient id="New_Gradient_Swatch_2" x1="155.22" y1="270.96" x2="155.22" y2="36.27" gradientUnits="userSpaceOnUse"><stop offset="0" stop-color="#2cabae"/><stop offset="1" stop-color="#187e89"/></linearGradient><linearGradient id="New_Gradient_Swatch_6" x1="110.42" y1="756.53" x2="223.36" y2="897.03" gradientUnits="userSpaceOnUse"><stop offset="0" stop-color="#f5c268"/><stop offset="1" stop-color="#d89144"/></linearGradient><linearGradient id="New_Gradient_Swatch_3" x1="188.92" y1="98.91" x2="188.92" y2="159.16" gradientUnits="userSpaceOnUse"><stop offset="0" stop-color="#5b4559"/><stop offset="1" stop-color="#3e2f3c"/></linearGradient></defs><g id="squares"><rect class="cls-1" width="310.43" height="310.43"/></g><g id="elements"><path class="cls-2" d="M201.73,841.29c-8.91,1.29-16.24,19.92-20.06,19.77s-27.51-27.72-32.3-33.93S124,791,124.85,787.21s20.72-6,24.25-14.32-7.09-50.23-13.91-54.27S98.82,733,95.92,736.46s-13.65,17.18-4,48.42c8.63,27.8,34.09,60.19,34.09,60.19s24.78,32.91,49.44,48.37C203.2,910.82,219.21,904,223.3,902s29.47-25.76,27.32-33.39S210.64,840,201.73,841.29Z" transform="translate(-15.36 -672.81)"/><path class="cls-3" d="M223,902.19c-88.88-43.89-112.87-95-128-164.49-3.74,4.94-11.76,18.85-3,47.18,8.63,27.8,34.09,60.19,34.09,60.19s24.78,32.91,49.44,48.37C202.49,910.38,218.37,904.29,223,902.19Z" transform="translate(-15.36 -672.81)"/><path class="cls-4" d="M231.87,853.24l-3-1.35c.73-1.64,1.42-3.33,2-5L234,848C233.35,849.77,232.64,851.53,231.87,853.24ZM236,841.59l-3.19-.87c.56-2.07,1-4.19,1.42-6.29l3.25.58C237.11,837.21,236.61,839.42,236,841.59Zm2.39-13.25-3.29-.31c.2-2.13.31-4.3.33-6.45l3.3,0C238.74,823.85,238.63,826.12,238.42,828.34Zm-3.19-13.22c-.17-2.14-.43-4.3-.77-6.41l3.25-.53c.36,2.2.64,4.45.81,6.69Zm-2.1-12.73c-.53-2.09-1.15-4.17-1.85-6.18l3.12-1.09c.73,2.11,1.38,4.28,1.93,6.46ZM228.9,790.2c-.88-2-1.85-3.91-2.88-5.78l2.89-1.59c1.08,1.94,2.09,4,3,6Zm-6.24-11.29c-.7-1-1.42-2-2.17-3.06-.54-.73-1.09-1.44-1.66-2.14l2.58-2.07c.58.73,1.16,1.48,1.73,2.24.78,1,1.53,2.11,2.25,3.19Zm-8.08-10.06c-1.48-1.55-3-3.06-4.65-4.47l2.19-2.48c1.67,1.48,3.3,3.05,4.85,4.67Zm-9.66-8.54c-1.72-1.28-3.52-2.49-5.35-3.62l1.74-2.81c1.9,1.18,3.78,2.45,5.57,3.78Zm-11-6.77c-1.9-1-3.88-1.86-5.88-2.66l1.23-3.06c2.09.83,4.15,1.77,6.14,2.77Zm-12-4.8c-2-.63-4.15-1.18-6.25-1.63l.69-3.22c2.2.47,4.39,1,6.53,1.69Zm-32-2.65-.43-3.27c2.22-.29,4.48-.49,6.71-.59l.16,3.29C154.3,745.62,152.14,745.81,150,746.09Zm19.33-.05c-2.12-.27-4.29-.45-6.43-.54l.13-3.29c2.24.08,4.5.27,6.72.55Z" transform="translate(-15.36 -672.81)"/><circle class="cls-5" cx="188.92" cy="113.83" r="38.95"/><path class="cls-6" d="M243.23,786.64a38.94,38.94,0,0,0-38.94-38.94v77.89A39,39,0,0,0,243.23,786.64Z" transform="translate(-15.36 -672.81)"/><path class="cls-4" d="M180.49,796.62l8.31-7.38c3.91-3.48,5.14-5.32,5.14-7.56s-1.76-3.48-4.35-3.48a12.25,12.25,0,0,0-8,3.26v-7.91a15.23,15.23,0,0,1,8.88-2.6c5.71,0,11.42,3.56,11.42,9.76,0,4.39-1.71,7.25-6.5,11.56l-3.74,3.34h11.21v6.72H180.49Z" transform="translate(-15.36 -672.81)"/><path class="cls-4" d="M219.83,795H205V789.5l14.68-17.93h7.82v17.31h4.26V795h-4.26v7.29h-7.69Zm0-6.16v-7.73l-6.46,7.73Z" transform="translate(-15.36 -672.81)"/><path class="cls-7" d="M122.23,720.84c-.27.12,18.36,59,18.36,59l16.52-5.34L141,715.07Z" transform="translate(-15.36 -672.81)"/><path class="cls-7" d="M243.21,882.72c-.19.24-51.68-33.92-51.68-33.92l9.69-14.4,52.71,31.87Z" transform="translate(-15.36 -672.81)"/></g></svg>